<?xml version="1.0" encoding="UTF-8"?>
<svg version="1.1" xmlns="http://www.w3.org/2000/svg" width="1440" height="598">
<path d="M0 0 C14.85 0 29.7 0 45 0 C48.06909781 6.75201518 51.01267119 13.35847832 53.6015625 20.27734375 C53.92027313 21.11935837 54.23898376 21.96137299 54.56735229 22.8289032 C55.24278765 24.61406146 55.91668334 26.39980295 56.58911133 28.18609619 C58.34590084 32.85227073 60.11450176 37.51396313 61.8828125 42.17578125 C62.23293396 43.09945496 62.58305542 44.02312866 62.94378662 44.97479248 C67.51856222 57.02667811 72.24588175 69.01785708 77 81 C80.39142409 72.99356655 83.5983846 64.93758228 86.65234375 56.796875 C87.07495987 55.67541077 87.49757599 54.55394653 87.93299866 53.39849854 C89.26979164 49.84973296 90.60368947 46.29988746 91.9375 42.75 C92.82728428 40.38664733 93.71725684 38.02336553 94.60742188 35.66015625 C99.08188599 23.77728 103.54164789 11.88893897 108 0 C122.85 0 137.7 0 153 0 C153 43.23 153 86.46 153 131 C140.79 131 128.58 131 116 131 C115.67 109.88 115.34 88.76 115 67 C108.88078042 85.06885468 108.88078042 85.06885468 102.7644043 103.13867188 C101.99277821 105.4153993 101.2210561 107.69209418 100.44921875 109.96875 C100.05432251 111.13696289 99.65942627 112.30517578 99.25256348 113.50878906 C98.86717407 114.64477539 98.48178467 115.78076172 98.0847168 116.95117188 C97.75384567 117.92824097 97.42297455 118.90531006 97.08207703 119.9119873 C95.77962113 123.6289134 94.3829063 127.31224986 93 131 C82.44 131 71.88 131 61 131 C53.1014979 109.07281507 45.51404532 87.06251603 38 65 C37.67 86.78 37.34 108.56 37 131 C24.79 131 12.58 131 0 131 C0 87.77 0 44.54 0 0 Z " fill="#FFFFFF" transform="translate(1085,323)"/>
<path d="M0 0 C12.54 0 25.08 0 38 0 C41.3 5.28 44.6 10.56 48 16 C51.50211771 21.27956267 51.50211771 21.27956267 55.02734375 26.54296875 C59.66906013 33.47357105 64.20462978 40.47488181 68.76000977 47.46240234 C69.79532837 49.04915771 69.79532837 49.04915771 70.8515625 50.66796875 C71.45822754 51.59891357 72.06489258 52.5298584 72.68994141 53.48901367 C76.1023363 58.67540671 79.55624929 63.83437393 83 69 C83.33 46.23 83.66 23.46 84 0 C96.54 0 109.08 0 122 0 C122 43.23 122 86.46 122 131 C84 131 84 131 74.54296875 122.5078125 C72.45837402 119.58154297 72.45837402 119.58154297 71.18164062 116.984375 C70.68510986 116.01822266 70.1885791 115.05207031 69.67700195 114.05664062 C69.18546631 113.08919922 68.69393066 112.12175781 68.1875 111.125 C67.1205489 109.26584218 66.04044655 107.41416931 64.94726562 105.5703125 C61.55760409 99.75600326 58.28039307 93.87665028 55 88 C49.39 79.42 43.78 70.84 38 62 C37.67 84.77 37.34 107.54 37 131 C24.79 131 12.58 131 0 131 C0 87.77 0 44.54 0 0 Z " fill="#FFFFFF" transform="translate(839,323)"/>
<path d="M0 0 C12.21 0 24.42 0 37 0 C37 16.17 37 32.34 37 49 C51.19 49 65.38 49 80 49 C80 32.83 80 16.66 80 0 C92.54 0 105.08 0 118 0 C118 43.23 118 86.46 118 131 C105.46 131 92.92 131 80 131 C80 113.84 80 96.68 80 79 C65.81 79 51.62 79 37 79 C37 96.16 37 113.32 37 131 C24.79 131 12.58 131 0 131 C0 87.77 0 44.54 0 0 Z " fill="#FFFFFF" transform="translate(997,145)"/>
<path d="M0 0 C14.52 0 29.04 0 44 0 C50.43592739 17.04898772 56.70150869 34.15124959 62.86229706 51.30129623 C65.02408916 57.317684 67.18987116 63.33263748 69.35546875 69.34765625 C69.59442116 70.01153162 69.83337357 70.67540699 70.07956696 71.3593998 C73.36118334 80.47528551 76.663073 89.58349574 79.98828125 98.68359375 C80.36741165 99.72188324 80.74654205 100.76017273 81.13716125 101.82992554 C82.89661503 106.64694151 84.65964149 111.4626054 86.42797852 116.27636719 C87.04324732 117.95894203 87.65840748 119.64155661 88.2734375 121.32421875 C88.55355179 122.08262558 88.83366608 122.84103241 89.12226868 123.62242126 C91 128.77305835 91 128.77305835 91 131 C77.8 131 64.6 131 51 131 C45 112 45 112 45 110 C29.82 110 14.64 110 -1 110 C-1.66 112.97 -2.32 115.94 -3 119 C-4.32 122.96 -5.64 126.92 -7 131 C-20.2 131 -33.4 131 -47 131 C-43.62471059 119.7490353 -43.62471059 119.7490353 -41.95385742 115.14355469 C-41.57833237 114.10439407 -41.20280731 113.06523346 -40.81590271 111.99458313 C-40.4164595 110.89808945 -40.0170163 109.80159576 -39.60546875 108.671875 C-39.18133194 107.50105881 -38.75719513 106.33024261 -38.32020569 105.12394714 C-37.18074172 101.98069174 -36.03877655 98.83836937 -34.89546204 95.69651413 C-33.94442965 93.08168752 -32.99551184 90.46609555 -32.04654121 87.85052013 C-25.93921787 71.0190312 -19.78599322 54.20469197 -13.57641602 37.41064453 C-8.97628632 24.96658948 -4.47203694 12.4908618 0 0 Z M21 43 C19.28719758 48.0890579 17.57830017 53.17940363 15.87304688 58.27099609 C15.29209472 60.00378013 14.71006726 61.73620403 14.12695312 63.46826172 C13.29015287 65.95446929 12.45719771 68.44193615 11.625 70.9296875 C11.36251465 71.70682098 11.1000293 72.48395447 10.82958984 73.28463745 C9.48183313 77.05949521 9.48183313 77.05949521 9 81 C17.58 81 26.16 81 35 81 C32.53981863 71.93762672 32.53981863 71.93762672 29.73828125 63.01953125 C29.34189453 61.83681641 28.94550781 60.65410156 28.53710938 59.43554688 C28.13298828 58.23994141 27.72886719 57.04433594 27.3125 55.8125 C26.89677734 54.57435547 26.48105469 53.33621094 26.05273438 52.06054688 C25.03791686 49.03942347 24.02029029 46.0192786 23 43 C22.34 43 21.68 43 21 43 Z " fill="#FFFFFF" transform="translate(1298,323)"/>
<path d="M0 0 C14.52 0 29.04 0 44 0 C45.41667969 3.95871094 46.83335937 7.91742188 48.29296875 11.99609375 C50.25647526 17.4770423 52.22174879 22.95735623 54.1875 28.4375 C54.44314224 29.15032387 54.69878448 29.86314774 54.96217346 30.59757233 C60.947141 47.28386895 66.95871744 63.95948436 73.09765625 80.58984375 C73.33909552 81.24402472 73.58053478 81.89820568 73.82929039 82.57221031 C76.35610051 89.41634695 78.89156982 96.25722822 81.43432617 103.09545898 C82.06575783 104.79860008 82.06575783 104.79860008 82.70994568 106.53614807 C83.48587594 108.62881025 84.26426155 110.72056466 85.04579163 112.81114197 C85.56598122 114.21536156 85.56598122 114.21536156 86.09667969 115.64794922 C86.39370789 116.44530487 86.69073608 117.24266052 86.99676514 118.06417847 C88.45632864 122.33537967 89.70299792 126.67665975 91 131 C77.8 131 64.6 131 51 131 C45 113 45 113 45 110 C29.82 110 14.64 110 -1 110 C-1.99 113.63 -2.98 117.26 -4 121 C-5.98 125.95 -5.98 125.95 -8 131 C-20.87 131 -33.74 131 -47 131 C-43.62888875 118.63925876 -43.62888875 118.63925876 -41.3828125 112.65234375 C-41.13350479 111.98240891 -40.88419708 111.31247406 -40.62733459 110.62223816 C-40.08371337 109.16224015 -39.53806228 107.70299662 -38.99057007 106.2444458 C-37.43972148 102.11107316 -35.90591813 97.97137529 -34.37109375 93.83203125 C-33.86407677 92.46585663 -33.86407677 92.46585663 -33.34681702 91.07208252 C-30.43522845 83.21110595 -27.57256972 75.33273463 -24.72265625 67.44921875 C-24.49492775 66.81936255 -24.26719925 66.18950634 -24.03256989 65.54056358 C-21.97144104 59.83883701 -19.91267416 54.13626029 -17.85626221 48.43283081 C-12.01866273 32.24373592 -6.07364082 16.10221056 0 0 Z M21 42 C19.28728153 47.231535 17.57838152 52.4642956 15.87304688 57.69824219 C15.29207111 59.47951127 14.7100435 61.26043763 14.12695312 63.04101562 C13.2902149 65.59676707 12.4572365 68.15371716 11.625 70.7109375 C11.36251465 71.50994476 11.1000293 72.30895203 10.82958984 73.13217163 C9.48594607 76.98593473 9.48594607 76.98593473 9 81 C17.58 81 26.16 81 35 81 C33.33326678 75.76533633 31.66292805 70.5321298 29.98291016 65.30175781 C29.4123439 63.52153914 28.843973 61.74061531 28.27783203 59.95898438 C27.4644046 57.40046307 26.64315496 54.844569 25.8203125 52.2890625 C25.56814972 51.49005524 25.31598694 50.69104797 25.05618286 49.86782837 C23.70752066 45.54615295 23.70752066 45.54615295 21 42 Z " fill="#FFFFFF" transform="translate(780,145)"/>
<path d="M0 0 C5.50024372 4.91971711 9.05114354 10.48993029 12.375 17 C12.70910889 17.65226562 13.04321777 18.30453125 13.38745117 18.9765625 C15.10116683 22.51956485 16.29019107 25.89727604 17.10400391 29.75390625 C17.27461334 30.55256104 17.44522278 31.35121582 17.6210022 32.17407227 C17.74607147 32.77662842 17.87114075 33.37918457 18 34 C12.25272727 34.19803736 6.50744577 34.34305146 0.75756836 34.43945312 C-1.19721063 34.4796409 -3.15174977 34.53420412 -5.10571289 34.60351562 C-7.91873249 34.7007876 -10.72857226 34.74596862 -13.54296875 34.78125 C-14.41398727 34.82254028 -15.2850058 34.86383057 -16.18241882 34.90637207 C-18.69654113 34.90822363 -20.62319934 34.82877543 -23 34 C-24.76057901 32.07920724 -25.87520683 30.23270735 -27.03044128 27.90220642 C-28.28021234 25.45024298 -29.73637221 24.37858707 -32.125 23.0625 C-32.78757812 22.68222656 -33.45015625 22.30195313 -34.1328125 21.91015625 C-40.70507481 18.70652211 -48.98110774 18.9029655 -55.93359375 20.80078125 C-62.41265414 23.67050206 -65.86329422 27.7369406 -69 34 C-69.33902344 34.66644531 -69.67804687 35.33289063 -70.02734375 36.01953125 C-73.78813979 45.08356964 -73.31790832 57.68738243 -70.04296875 66.8203125 C-66.44023984 74.34961111 -61.53197662 79.32149014 -53.625 82.25 C-46.14165148 83.798279 -39.8977078 83.31882529 -33 80 C-29.47322473 77.62607777 -26.56837523 75.4416423 -24.98461914 71.42456055 C-23 69 -23 69 -21.1461792 68.55969238 C-18.66290241 68.41919944 -16.22456254 68.43891829 -13.73828125 68.51171875 C-12.37959175 68.52233086 -12.37959175 68.52233086 -10.99345398 68.53315735 C-8.09896417 68.56115772 -5.2064055 68.62390559 -2.3125 68.6875 C-0.35093939 68.71257562 1.61065154 68.73539007 3.57226562 68.75585938 C8.38225505 68.81100284 13.19080009 68.89731358 18 69 C13.40458083 86.36714259 5.96378735 100.06418626 -9.8125 109.875 C-26.69950343 119.1138251 -48.00433159 120.95245773 -66.51953125 115.83398438 C-77.61079219 112.44498798 -85.8807271 107.22131044 -94 99 C-94.56332031 98.45859375 -95.12664063 97.9171875 -95.70703125 97.359375 C-108.79703116 83.6822247 -111.44312284 64.11568069 -111.21484375 46.08984375 C-110.66171307 27.58916848 -103.09154487 11.52143722 -89.8125 -1.3125 C-64.65829673 -22.38408389 -24.55310972 -20.79614239 0 0 Z " fill="#FFFFFF" transform="translate(743,337)"/>
<path d="M0 0 C28.05 0 56.1 0 85 0 C85 9.9 85 19.8 85 30 C69.49 30 53.98 30 38 30 C38 36.6 38 43.2 38 50 C51.53 50 65.06 50 79 50 C79 59.57 79 69.14 79 79 C65.47 79 51.94 79 38 79 C38 86.26 38 93.52 38 101 C53.51 101 69.02 101 85 101 C85 110.9 85 120.8 85 131 C56.95 131 28.9 131 0 131 C0 87.77 0 44.54 0 0 Z " fill="#FFFFFF" transform="translate(981,323)"/>
<path d="M0 0 C40.59 0 81.18 0 123 0 C122.67 3.63 122.34 7.26 122 11 C121.91412568 13.80354407 121.85858875 16.57414597 121.875 19.375 C121.87113281 20.02726562 121.86726563 20.67953125 121.86328125 21.3515625 C121.86457031 22.02703125 121.86585938 22.7025 121.8671875 23.3984375 C121.86551575 24.07486298 121.86384399 24.75128845 121.86212158 25.44821167 C121.94099161 28.0729487 121.94099161 28.0729487 122.59124756 30.88552856 C123.46888189 35.89915792 123.89232837 39.47542507 121.25991821 43.97299194 C118.57633803 47.0433229 115.75702692 49.82150473 112.7734375 52.59375 C111.70476664 53.63624831 110.63918914 54.6819261 109.5765686 55.73059082 C106.78393469 58.47006411 103.95194316 61.16493635 101.10913086 63.85217285 C98.23137878 66.58670581 95.3927655 69.36120862 92.55078125 72.1328125 C87.54109229 77.00896667 82.49870073 81.84890151 77.43026733 86.66394043 C74.91983658 89.07705594 72.45481609 91.53043083 70 94 C57.8125 106.1875 57.8125 106.1875 55.82226562 108.17749023 C54.70604801 109.2938574 53.59009807 110.41049238 52.47460938 111.52758789 C50.49465078 113.5101131 48.50622838 115.48142733 46.5 117.4375 C43.94454137 119.97522953 43.94454137 119.97522953 41.6875 122.875 C38.56217061 126.72155925 34.78586003 129.82476255 31 133 C27.54943141 131.60963448 26.32204777 130.36392496 24.78125 127 C24.40806641 126.19965332 24.03488281 125.39930664 23.65039062 124.57470703 C23.27076172 123.72505371 22.89113281 122.87540039 22.5 122 C22.10490234 121.13874512 21.70980469 120.27749023 21.30273438 119.39013672 C15.57204076 106.80969613 15.57204076 106.80969613 14 102 C13.71399429 101.25510818 13.42798859 100.51021637 13.13331604 99.74275208 C13 97 13 97 15.08164978 94.19682312 C16.10921255 93.15184457 17.15371432 92.12336892 18.21069336 91.1081543 C18.77625443 90.54171707 19.34181549 89.97527985 19.92451477 89.39167786 C21.79908756 87.52128818 23.69402106 85.67304597 25.58984375 83.82421875 C26.89294936 82.53230257 28.19473727 81.23905604 29.49525452 79.9445343 C32.92307961 76.53962679 36.36853912 73.15311801 39.81793213 69.77008057 C43.95218549 65.70797158 48.06427939 61.62344767 52.1800766 57.54265594 C58.43653884 51.34439336 64.72054082 45.17534779 71 39 C47.24 38.67 23.48 38.34 -1 38 C-1 2 -1 2 0 0 Z " fill="#FFFFFF" transform="translate(74,280)"/>
<path d="M0 0 C12.54 0 25.08 0 38 0 C38 40.92 38 81.84 38 124 C35.03 123.67 32.06 123.34 29 123 C26.4092207 122.95634063 23.81723752 122.95835088 21.2265625 123.0078125 C19.81120472 123.0252988 18.39583973 123.04220987 16.98046875 123.05859375 C14.7880409 123.08972356 12.59598233 123.125606 10.40380859 123.17138672 C8.26134533 123.21361911 6.11932694 123.23710566 3.9765625 123.2578125 C2.70893066 123.2798877 1.44129883 123.30196289 0.13525391 123.32470703 C-3 123 -3 123 -4.93603516 121.60888672 C-6 120 -6 120 -6 118 C-6.66 118 -7.32 118 -8 118 C-8 117.34 -8 116.68 -8 116 C-8.639375 115.731875 -9.27875 115.46375 -9.9375 115.1875 C-12 114 -12 114 -13 111 C-13.66 111 -14.32 111 -15 111 C-15 110.34 -15 109.68 -15 109 C-15.639375 108.731875 -16.27875 108.46375 -16.9375 108.1875 C-19 107 -19 107 -20 104 C-20.5775 103.71125 -21.155 103.4225 -21.75 103.125 C-25.86904312 101.06547844 -28.57052195 97.52858837 -31.4375 94 C-34.06751232 90.92096119 -36.8625034 88.54921599 -40 86 C-44.6975089 81.6227758 -44.6975089 81.6227758 -46.0625 78.8125 C-47.29757189 76.42469435 -48.60375377 76.16389103 -51 75 C-53.74740566 72.46393324 -56.13478975 69.83488255 -58.5 66.9375 C-60.88705106 63.94446128 -60.88705106 63.94446128 -63.8125 61.75 C-64.534375 61.1725 -65.25625 60.595 -66 60 C-66 59.34 -66 58.68 -66 58 C-66.66 58 -67.32 58 -68 58 C-68 57.34 -68 56.68 -68 56 C-68.639375 55.731875 -69.27875 55.46375 -69.9375 55.1875 C-72 54 -72 54 -73 51 C-73.66 51 -74.32 51 -75 51 C-75 50.34 -75 49.68 -75 49 C-75.639375 48.731875 -76.27875 48.46375 -76.9375 48.1875 C-79 47 -79 47 -80 44 C-80.66 44 -81.32 44 -82 44 C-82 43.34 -82 42.68 -82 42 C-82.639375 41.731875 -83.27875 41.46375 -83.9375 41.1875 C-86 40 -86 40 -87 37 C-87.66 37 -88.32 37 -89 37 C-89 36.34 -89 35.68 -89 35 C-89.61875 34.7525 -90.2375 34.505 -90.875 34.25 C-93.37480203 32.77952822 -93.83316022 31.58596924 -95 29 C-88.07174167 24.94792231 -80.93002151 21.49887129 -73.625 18.1875 C-72.75713867 17.79054932 -71.88927734 17.39359863 -70.99511719 16.98461914 C-70.16399414 16.61199951 -69.33287109 16.23937988 -68.4765625 15.85546875 C-67.73486816 15.52184326 -66.99317383 15.18821777 -66.22900391 14.84448242 C-63.81452086 13.92972921 -61.55826813 13.34953549 -59 13 C-57.15625 14.0390625 -57.15625 14.0390625 -55.5 15.625 C-54.90445313 16.18445313 -54.30890625 16.74390625 -53.6953125 17.3203125 C-53.13585937 17.87460938 -52.57640625 18.42890625 -52 19 C-51.13375 19.825 -50.2675 20.65 -49.375 21.5 C-46.78039563 24.2311625 -44.41124602 27.10650478 -42 30 C-40.3540349 31.68711423 -38.68762851 33.3545622 -37 35 C-36.195625 35.825 -35.39125 36.65 -34.5625 37.5 C-31.99059292 40.08280067 -31.99059292 40.08280067 -28.9375 42.5 C-26.18754889 44.84038392 -24.2017103 47.15908348 -22 50 C-19.5844822 52.53939051 -17.20100612 54.84311718 -14.4375 57 C-12 59 -12 59 -10.125 61.375 C-7.46055449 64.82798613 -7.46055449 64.82798613 -1 70 C-0.67 46.9 -0.34 23.8 0 0 Z " fill="#FFFFFF" transform="translate(286,69)"/>
<path d="M0 0 C3.91841827 1.30613942 6.32640809 2.83129848 9 6 C9 6.66 9 7.32 9 8 C9.639375 8.268125 10.27875 8.53625 10.9375 8.8125 C13 10 13 10 14 13 C15.3153341 13.70151152 16.65117592 14.36525925 18 15 C19.75 16.5 19.75 16.5 21 18 C21 18.66 21 19.32 21 20 C21.556875 20.226875 22.11375 20.45375 22.6875 20.6875 C26.74657746 22.99130072 29.51937887 26.4084663 32.4375 30 C34.37891633 32.27287765 36.02159784 33.92158043 38.3125 35.75 C39.199375 36.4925 40.08625 37.235 41 38 C41 38.66 41 39.32 41 40 C41.598125 40.268125 42.19625 40.53625 42.8125 40.8125 C44.99847854 41.99917406 46.41332594 43.09599113 48 45 C48 45.66 48 46.32 48 47 C48.598125 47.268125 49.19625 47.53625 49.8125 47.8125 C51.99847854 48.99917406 53.41332594 50.09599113 55 52 C55 52.66 55 53.32 55 54 C55.556875 54.226875 56.11375 54.45375 56.6875 54.6875 C60.77144677 57.00541573 63.55602697 60.45613304 66.5 64.0625 C68.88705106 67.05553872 68.88705106 67.05553872 71.8125 69.25 C72.534375 69.8275 73.25625 70.405 74 71 C74 71.66 74 72.32 74 73 C74.66 73 75.32 73 76 73 C76 73.66 76 74.32 76 75 C76.639375 75.268125 77.27875 75.53625 77.9375 75.8125 C80 77 80 77 81 80 C81.66 80 82.32 80 83 80 C83 80.66 83 81.32 83 82 C83.9590625 82.37125 83.9590625 82.37125 84.9375 82.75 C87 84 87 84 87.62890625 86.078125 C87.81259766 87.02945313 87.81259766 87.02945313 88 88 C87.48050781 88.38671875 86.96101562 88.7734375 86.42578125 89.171875 C79.30652655 93.79404648 79.30652655 93.79404648 74 100 C73.34 100 72.68 100 72 100 C72 100.66 72 101.32 72 102 C70.68799596 103.35432675 69.35368596 104.68733482 68 106 C67.67 106.66 67.34 107.32 67 108 C66.34 108 65.68 108 65 108 C64.690625 108.61875 64.38125 109.2375 64.0625 109.875 C63.375 111.25 62.6875 112.625 62 114 C18.11 114 -25.78 114 -71 114 C-68.76464203 103.94088912 -66.76807063 95.10268029 -62 86 C-60.68 82.7 -59.36 79.4 -58 76 C-17.905 75.505 -17.905 75.505 23 75 C23 74.34 23 73.68 23 73 C21.515 72.505 21.515 72.505 20 72 C20 71.34 20 70.68 20 70 C19.34 70 18.68 70 18 70 C18 69.34 18 68.68 18 68 C17.34 68 16.68 68 16 68 C16 67.34 16 66.68 16 66 C14.515 65.505 14.515 65.505 13 65 C13 64.34 13 63.68 13 63 C12.34 63 11.68 63 11 63 C11 62.34 11 61.68 11 61 C10.34 61 9.68 61 9 61 C9 60.34 9 59.68 9 59 C8.34 59 7.68 59 7 59 C5.375 57.625 5.375 57.625 4 56 C4 55.34 4 54.68 4 54 C3.401875 53.731875 2.80375 53.46375 2.1875 53.1875 C0.00152146 52.00082594 -1.41332594 50.90400887 -3 49 C-3 48.34 -3 47.68 -3 47 C-3.598125 46.731875 -4.19625 46.46375 -4.8125 46.1875 C-6.99847854 45.00082594 -8.41332594 43.90400887 -10 42 C-10 41.34 -10 40.68 -10 40 C-10.598125 39.731875 -11.19625 39.46375 -11.8125 39.1875 C-13.99847854 38.00082594 -15.41332594 36.90400887 -17 35 C-17 34.34 -17 33.68 -17 33 C-17.598125 32.731875 -18.19625 32.46375 -18.8125 32.1875 C-21.07573361 30.95888747 -22.51540577 30.10968654 -24 28 C-23.6875 25.3125 -23.6875 25.3125 -23 23 C-22.34 23 -21.68 23 -21 23 C-20.34 21.35 -19.68 19.7 -19 18 C-18.34 18 -17.68 18 -17 18 C-17 17.34 -17 16.68 -17 16 C-15.625 14.375 -15.625 14.375 -14 13 C-13.34 13 -12.68 13 -12 13 C-12 12.34 -12 11.68 -12 11 C-11.34 11 -10.68 11 -10 11 C-10 10.34 -10 9.68 -10 9 C-8.3203125 7.2734375 -8.3203125 7.2734375 -6.125 5.375 C-5.40570313 4.74335938 -4.68640625 4.11171875 -3.9453125 3.4609375 C-2 2 -2 2 0 2 C0 1.34 0 0.68 0 0 Z " fill="#FFFFFF" transform="translate(153,124)"/>
<path d="M0 0 C1.29795502 -0.00087616 2.59591003 -0.00175232 3.93319702 -0.00265503 C7.48494138 -0.00437438 11.03546636 0.03086293 14.58692765 0.07278872 C18.30110863 0.11033435 22.01531857 0.11382404 25.72966003 0.12094116 C32.75983223 0.13957897 39.78944361 0.18880081 46.81936902 0.2490381 C54.82409005 0.31613701 62.82883808 0.34910062 70.83377039 0.37921071 C87.29730462 0.44190143 103.76027504 0.54741484 120.22338867 0.68115234 C119.40141566 5.75539156 118.16922389 10.38195631 116.53588867 15.24365234 C116.27332275 16.02925537 116.01075684 16.8148584 115.74023438 17.62426758 C109.73648802 35.168053 109.73648802 35.168053 106.22338867 38.68115234 C103.72939802 38.80612849 101.26170538 38.86718114 98.76611328 38.88647461 C97.98568161 38.89637421 97.20524994 38.9062738 96.40116882 38.91647339 C93.80938805 38.94818009 91.2175889 38.97288185 88.62573242 38.99755859 C86.83353689 39.01812022 85.0413463 39.03911647 83.24916077 39.06053162 C78.52273547 39.1158341 73.79626582 39.16520718 69.06976318 39.21337891 C64.25048863 39.26353439 59.4312788 39.31925145 54.61206055 39.37451172 C45.14922516 39.48219323 35.68633368 39.58361586 26.22338867 39.68115234 C26.71838867 40.13490234 27.21338867 40.58865234 27.72338867 41.05615234 C29.22338867 42.68115234 29.22338867 42.68115234 29.22338867 44.68115234 C29.82151367 44.94927734 30.41963867 45.21740234 31.03588867 45.49365234 C33.22186721 46.68032641 34.63671461 47.77714347 36.22338867 49.68115234 C36.22338867 50.34115234 36.22338867 51.00115234 36.22338867 51.68115234 C36.82151367 51.94927734 37.41963867 52.21740234 38.03588867 52.49365234 C40.22186721 53.68032641 41.63671461 54.77714347 43.22338867 56.68115234 C43.22338867 57.34115234 43.22338867 58.00115234 43.22338867 58.68115234 C43.82151367 58.94927734 44.41963867 59.21740234 45.03588867 59.49365234 C47.22186721 60.68032641 48.63671461 61.77714347 50.22338867 63.68115234 C50.22338867 64.34115234 50.22338867 65.00115234 50.22338867 65.68115234 C50.86276367 65.94927734 51.50213867 66.21740234 52.16088867 66.49365234 C54.22338867 67.68115234 54.22338867 67.68115234 55.22338867 70.68115234 C56.53872278 71.38266387 57.87456459 72.0464116 59.22338867 72.68115234 C60.97338867 74.18115234 60.97338867 74.18115234 62.22338867 75.68115234 C62.22338867 76.34115234 62.22338867 77.00115234 62.22338867 77.68115234 C63.12057617 78.08333984 63.12057617 78.08333984 64.03588867 78.49365234 C66.22186721 79.68032641 67.63671461 80.77714347 69.22338867 82.68115234 C69.22338867 83.34115234 69.22338867 84.00115234 69.22338867 84.68115234 C71.20338867 85.67115234 71.20338867 85.67115234 73.22338867 86.68115234 C73.22338867 88.00115234 73.22338867 89.32115234 73.22338867 90.68115234 C72.56338867 90.68115234 71.90338867 90.68115234 71.22338867 90.68115234 C71.22338867 91.34115234 71.22338867 92.00115234 71.22338867 92.68115234 C70.56338867 92.68115234 69.90338867 92.68115234 69.22338867 92.68115234 C68.83268188 93.56081665 68.83268188 93.56081665 68.43408203 94.45825195 C67.1458733 96.82347489 65.76906681 98.36431023 63.85229492 100.24755859 C63.19551758 100.89789063 62.53874023 101.54822266 61.86206055 102.21826172 C60.83435547 103.22083008 60.83435547 103.22083008 59.78588867 104.24365234 C59.10461914 104.91589844 58.42334961 105.58814453 57.72143555 106.28076172 C56.4529553 107.5318485 55.1824278 108.78086549 53.90917969 110.02709961 C52.78913062 111.12606159 51.69875511 112.25613648 50.64111328 113.4152832 C49.9393396 114.04188843 49.9393396 114.04188843 49.22338867 114.68115234 C47.03588867 114.36865234 47.03588867 114.36865234 45.22338867 113.68115234 C45.22338867 113.02115234 45.22338867 112.36115234 45.22338867 111.68115234 C44.58401367 111.41302734 43.94463867 111.14490234 43.28588867 110.86865234 C41.22338867 109.68115234 41.22338867 109.68115234 40.22338867 106.68115234 C39.56338867 106.68115234 38.90338867 106.68115234 38.22338867 106.68115234 C38.22338867 106.02115234 38.22338867 105.36115234 38.22338867 104.68115234 C37.58401367 104.41302734 36.94463867 104.14490234 36.28588867 103.86865234 C34.22338867 102.68115234 34.22338867 102.68115234 33.22338867 99.68115234 C32.56338867 99.68115234 31.90338867 99.68115234 31.22338867 99.68115234 C31.22338867 99.02115234 31.22338867 98.36115234 31.22338867 97.68115234 C30.58401367 97.41302734 29.94463867 97.14490234 29.28588867 96.86865234 C27.22338867 95.68115234 27.22338867 95.68115234 26.22338867 92.68115234 C25.56338867 92.68115234 24.90338867 92.68115234 24.22338867 92.68115234 C24.22338867 92.02115234 24.22338867 91.36115234 24.22338867 90.68115234 C23.23338867 90.35115234 22.24338867 90.02115234 21.22338867 89.68115234 C21.22338867 89.02115234 21.22338867 88.36115234 21.22338867 87.68115234 C20.56338867 87.68115234 19.90338867 87.68115234 19.22338867 87.68115234 C19.22338867 87.02115234 19.22338867 86.36115234 19.22338867 85.68115234 C18.56338867 85.68115234 17.90338867 85.68115234 17.22338867 85.68115234 C17.22338867 85.02115234 17.22338867 84.36115234 17.22338867 83.68115234 C16.23338867 83.35115234 15.24338867 83.02115234 14.22338867 82.68115234 C14.22338867 82.02115234 14.22338867 81.36115234 14.22338867 80.68115234 C13.56338867 80.68115234 12.90338867 80.68115234 12.22338867 80.68115234 C12.22338867 80.02115234 12.22338867 79.36115234 12.22338867 78.68115234 C11.62526367 78.41302734 11.02713867 78.14490234 10.41088867 77.86865234 C8.22491014 76.68197828 6.81006273 75.58516122 5.22338867 73.68115234 C5.22338867 73.02115234 5.22338867 72.36115234 5.22338867 71.68115234 C4.62526367 71.41302734 4.02713867 71.14490234 3.41088867 70.86865234 C1.22491014 69.68197828 -0.18993727 68.58516122 -1.77661133 66.68115234 C-1.77661133 66.02115234 -1.77661133 65.36115234 -1.77661133 64.68115234 C-2.37473633 64.41302734 -2.97286133 64.14490234 -3.58911133 63.86865234 C-5.77508986 62.68197828 -7.18993727 61.58516122 -8.77661133 59.68115234 C-8.77661133 59.02115234 -8.77661133 58.36115234 -8.77661133 57.68115234 C-9.33348633 57.45427734 -9.89036133 57.22740234 -10.46411133 56.99365234 C-13.43516318 55.30737967 -15.42183258 53.15079835 -17.77661133 50.68115234 C-19.01411133 49.47458984 -19.01411133 49.47458984 -20.27661133 48.24365234 C-22.77661133 45.68115234 -22.77661133 45.68115234 -25.27661133 42.61865234 C-27.61699525 39.86870124 -29.93569481 37.88286265 -32.77661133 35.68115234 C-36.01926596 32.73328449 -37.93905447 30.97818319 -38.77661133 26.68115234 C-38.25711914 26.30603516 -37.73762695 25.93091797 -37.20239258 25.54443359 C-32.17803825 21.85743051 -27.87399824 17.89838993 -23.58911133 13.36865234 C-21.77661133 11.68115234 -21.77661133 11.68115234 -19.77661133 11.68115234 C-19.54973633 10.97990234 -19.32286133 10.27865234 -19.08911133 9.55615234 C-14.64353753 -0.18177121 -10.17141839 -0.17901556 0 0 Z " fill="#FFFFFF" transform="translate(405.776611328125,360.31884765625)"/>
<path d="M0 0 C0 0.66 0 1.32 0 2 C0.66 2 1.32 2 2 2 C3.625 3.375 3.625 3.375 5 5 C5 5.66 5 6.32 5 7 C5.66 7 6.32 7 7 7 C7 7.66 7 8.32 7 9 C7.66 9 8.32 9 9 9 C10.625 10.375 10.625 10.375 12 12 C12 12.66 12 13.32 12 14 C12.66 14 13.32 14 14 14 C14 14.66 14 15.32 14 16 C14.66 16 15.32 16 16 16 C17.625 17.375 17.625 17.375 19 19 C19 19.66 19 20.32 19 21 C19.66 21 20.32 21 21 21 C21 21.66 21 22.32 21 23 C21.66 23 22.32 23 23 23 C24.625 24.375 24.625 24.375 26 26 C26 26.66 26 27.32 26 28 C26.66 28 27.32 28 28 28 C28 28.66 28 29.32 28 30 C28.66 30 29.32 30 30 30 C31.625 31.375 31.625 31.375 33 33 C33 33.66 33 34.32 33 35 C33.66 35 34.32 35 35 35 C37.625 37.375 37.625 37.375 40 40 C40 40.66 40 41.32 40 42 C40.66 42 41.32 42 42 42 C44.625 44.375 44.625 44.375 47 47 C47 47.66 47 48.32 47 49 C47.66 49 48.32 49 49 49 C51.625 51.375 51.625 51.375 54 54 C54 54.66 54 55.32 54 56 C54.66 56 55.32 56 56 56 C58.625 58.375 58.625 58.375 61 61 C61 61.66 61 62.32 61 63 C61.66 63 62.32 63 63 63 C65.625 65.375 65.625 65.375 68 68 C68 68.66 68 69.32 68 70 C68.66 70 69.32 70 70 70 C71.55078125 71.609375 71.55078125 71.609375 73.3125 73.75 C75.99951837 76.92101547 78.73508184 79.42243303 82 82 C83.69088222 83.97956942 85.35830472 85.97945196 87 88 C88.31543863 89.35099103 89.64175118 90.69205669 91 92 C89.56922268 95.65814957 88.09273741 96.80511822 84.5625 98.4375 C83.66660156 98.85773438 82.77070313 99.27796875 81.84765625 99.7109375 C80.90792969 100.13632812 79.96820313 100.56171875 79 101 C78.09121094 101.42539062 77.18242187 101.85078125 76.24609375 102.2890625 C73.51037734 103.55768775 70.76061261 104.78658706 68 106 C66.62521484 106.61294922 66.62521484 106.61294922 65.22265625 107.23828125 C64.34480469 107.61339844 63.46695313 107.98851562 62.5625 108.375 C61.78003906 108.71273437 60.99757813 109.05046875 60.19140625 109.3984375 C57.63404442 110.10045839 56.44566028 109.9859813 54 109 C52.44433594 107.81665039 52.44433594 107.81665039 50.984375 106.34765625 C50.19160156 105.55391602 50.19160156 105.55391602 49.3828125 104.74414062 C48.84398437 104.18919922 48.30515625 103.63425781 47.75 103.0625 C47.19570313 102.51142578 46.64140625 101.96035156 46.0703125 101.39257812 C42 97.26712592 42 97.26712592 42 95 C41.1028125 94.5978125 41.1028125 94.5978125 40.1875 94.1875 C38.00152146 93.00082594 36.58667406 91.90400887 35 90 C35 89.34 35 88.68 35 88 C34.40805847 87.73337555 33.81611694 87.4667511 33.20623779 87.19204712 C30.95541205 85.97590879 29.49513234 84.73689572 27.70019531 82.92724609 C27.07129395 82.29810303 26.44239258 81.66895996 25.79443359 81.02075195 C25.14555176 80.36163818 24.49666992 79.70252441 23.828125 79.0234375 C23.22274902 78.41604736 22.61737305 77.80865723 21.99365234 77.18286133 C19.7402675 74.91903631 17.49565086 72.64649712 15.25 70.375 C10.2175 65.30125 5.185 60.2275 0 55 C-0.33 77.11 -0.66 99.22 -1 122 C-12.33333333 127.66666667 -26.32894813 123 -39 123 C-39 82.41 -39 41.82 -39 0 C-29.76 0 -20.52 0 -11 0 C-3 -1 -3 -1 0 0 Z " fill="#FFFFFF" transform="translate(325,407)"/>
<path d="M0 0 C4.09369417 3.04402899 7.1027239 6.28756431 10.25 10.3125 C15.34904208 16.70790871 21.2217 21.48113333 28 26 C28.36914349 28.33882332 28.36914349 28.33882332 28.36076355 31.32766724 C28.36488754 32.45791321 28.36901154 33.58815918 28.3732605 34.75265503 C28.36247467 35.99846344 28.35168884 37.24427185 28.34057617 38.52783203 C28.34123329 40.48873779 28.34123329 40.48873779 28.34190369 42.48925781 C28.34276654 46.08005683 28.32509427 49.67055689 28.30418181 53.26128626 C28.28546307 57.01156771 28.28366838 60.76185556 28.28010559 64.51217651 C28.27077095 71.61661925 28.2461381 78.72092395 28.21605712 85.82530582 C28.18255713 93.91224053 28.1660382 101.99918174 28.15097082 110.08616853 C28.11958968 126.72419324 28.06680177 143.36207902 28 160 C25.45564424 159.21463237 22.91207713 158.42685185 20.36889648 157.63769531 C19.65522667 157.41767853 18.94155685 157.19766174 18.20626068 156.97097778 C12.37925167 155.15961948 6.70688758 153.07022256 1.0625 150.75 C0.18916016 150.399375 -0.68417969 150.04875 -1.58398438 149.6875 C-7.85355914 147.14644086 -7.85355914 147.14644086 -9 146 C-9.12500152 143.4755093 -9.18603538 140.97700383 -9.20532227 138.45092773 C-9.21522186 137.66074249 -9.22512146 136.87055725 -9.23532104 136.056427 C-9.26702848 133.43218022 -9.29172979 130.80791531 -9.31640625 128.18359375 C-9.33696781 126.36897803 -9.35796406 124.5543672 -9.37937927 122.73976135 C-9.43468241 117.9541518 -9.4840552 113.16849844 -9.53222656 108.3828125 C-9.58238157 103.50321536 -9.63809888 98.62368215 -9.69335938 93.74414062 C-9.80104168 84.16281498 -9.90246413 74.58143392 -10 65 C-10.78375 65.825 -11.5675 66.65 -12.375 67.5 C-15 70 -15 70 -17 70 C-17 70.66 -17 71.32 -17 72 C-19.375 74.625 -19.375 74.625 -22 77 C-22.66 77 -23.32 77 -24 77 C-24 77.66 -24 78.32 -24 79 C-26.375 81.625 -26.375 81.625 -29 84 C-29.66 84 -30.32 84 -31 84 C-31 84.66 -31 85.32 -31 86 C-32.375 87.625 -32.375 87.625 -34 89 C-34.66 89 -35.32 89 -36 89 C-36 89.66 -36 90.32 -36 91 C-36.66 91 -37.32 91 -38 91 C-38 91.66 -38 92.32 -38 93 C-38.66 93 -39.32 93 -40 93 C-40.495 94.485 -40.495 94.485 -41 96 C-41.66 96 -42.32 96 -43 96 C-43 96.66 -43 97.32 -43 98 C-43.66 98 -44.32 98 -45 98 C-45 98.66 -45 99.32 -45 100 C-45.66 100 -46.32 100 -47 100 C-47.495 101.485 -47.495 101.485 -48 103 C-48.66 103 -49.32 103 -50 103 C-50 103.66 -50 104.32 -50 105 C-50.66 105 -51.32 105 -52 105 C-52.268125 105.639375 -52.53625 106.27875 -52.8125 106.9375 C-54 109 -54 109 -57 110 C-57 110.66 -57 111.32 -57 112 C-58.6875 112.8125 -58.6875 112.8125 -61 113 C-62.74703414 111.38071973 -64.36507956 109.72818163 -66 108 C-67.2908689 106.70233616 -68.58542108 105.4083302 -69.8828125 104.1171875 C-73.921875 100.078125 -77.9609375 96.0390625 -82 92 C-82.5760498 91.4858252 -83.15209961 90.97165039 -83.74560547 90.44189453 C-84.15955566 89.96606934 -84.57350586 89.49024414 -85 89 C-84.6875 86.3125 -84.6875 86.3125 -84 84 C-83.34 84 -82.68 84 -82 84 C-81.731875 83.401875 -81.46375 82.80375 -81.1875 82.1875 C-80.00082594 80.00152146 -78.90400887 78.58667406 -77 77 C-76.34 77 -75.68 77 -75 77 C-74.731875 76.401875 -74.46375 75.80375 -74.1875 75.1875 C-73.00082594 73.00152146 -71.90400887 71.58667406 -70 70 C-69.34 70 -68.68 70 -68 70 C-67.773125 69.443125 -67.54625 68.88625 -67.3125 68.3125 C-65.00869928 64.25342254 -61.5915337 61.48062113 -58 58.5625 C-55.72712235 56.62108367 -54.07841957 54.97840216 -52.25 52.6875 C-51.5075 51.800625 -50.765 50.91375 -50 50 C-49.34 50 -48.68 50 -48 50 C-47.731875 49.401875 -47.46375 48.80375 -47.1875 48.1875 C-46.00082594 46.00152146 -44.90400887 44.58667406 -43 43 C-42.34 43 -41.68 43 -41 43 C-40.731875 42.360625 -40.46375 41.72125 -40.1875 41.0625 C-39 39 -39 39 -36 38 C-35.29848848 36.6846659 -34.63474075 35.34882408 -34 34 C-32.5 32.25 -32.5 32.25 -31 31 C-30.34 31 -29.68 31 -29 31 C-28.731875 30.401875 -28.46375 29.80375 -28.1875 29.1875 C-27.00082594 27.00152146 -25.90400887 25.58667406 -24 24 C-23.34 24 -22.68 24 -22 24 C-21.731875 23.401875 -21.46375 22.80375 -21.1875 22.1875 C-20.00082594 20.00152146 -18.90400887 18.58667406 -17 17 C-16.34 17 -15.68 17 -15 17 C-14.731875 16.401875 -14.46375 15.80375 -14.1875 15.1875 C-13.00082594 13.00152146 -11.90400887 11.58667406 -10 10 C-9.34 10 -8.68 10 -8 10 C-7.5978125 9.0409375 -7.5978125 9.0409375 -7.1875 8.0625 C-6 6 -6 6 -3 5 C-3 4.34 -3 3.68 -3 3 C-2.34 3 -1.68 3 -1 3 C-0.67 2.01 -0.34 1.02 0 0 Z " fill="#FFFFFF" transform="translate(214,362)"/>
<path d="M0 0 C3.42975051 1.71487525 4.34961101 5.69133363 5.875 9.0625 C6.55890926 10.55383824 7.24380254 12.04472562 7.9296875 13.53515625 C8.26871094 14.27411133 8.60773438 15.01306641 8.95703125 15.77441406 C10.2964257 18.63254135 11.71232142 21.44822891 13.14794922 24.2590332 C15.35120878 28.76087961 16.76366224 32.98164814 16 38 C13.75 40.0625 13.75 40.0625 11 42 C9.64613064 43.65002828 8.31321858 45.3174387 7 47 C4.375 49.8125 4.375 49.8125 2 52 C1.34 52 0.68 52 0 52 C0 52.66 0 53.32 0 54 C-2.375 56.625 -2.375 56.625 -5 59 C-5.66 59 -6.32 59 -7 59 C-7 59.66 -7 60.32 -7 61 C-9.375 63.625 -9.375 63.625 -12 66 C-12.66 66 -13.32 66 -14 66 C-14 66.66 -14 67.32 -14 68 C-16.375 70.625 -16.375 70.625 -19 73 C-19.66 73 -20.32 73 -21 73 C-21 73.66 -21 74.32 -21 75 C-23.375 77.625 -23.375 77.625 -26 80 C-26.66 80 -27.32 80 -28 80 C-28 80.66 -28 81.32 -28 82 C-28.66 82 -29.32 82 -30 82 C-30.495 83.485 -30.495 83.485 -31 85 C-31.66 85 -32.32 85 -33 85 C-33 85.66 -33 86.32 -33 87 C-33.66 87 -34.32 87 -35 87 C-35 87.66 -35 88.32 -35 89 C-35.66 89 -36.32 89 -37 89 C-37.495 90.485 -37.495 90.485 -38 92 C-38.33 92.33 -38.66 92.66 -39 93 C-16.56 93 5.88 93 29 93 C29 105.54 29 118.08 29 131 C-11.59 131 -52.18 131 -94 131 C-93.67 127.7 -93.34 124.4 -93 121 C-92.91293952 118.17565549 -92.85803696 115.38435163 -92.875 112.5625 C-92.87246216 111.46953613 -92.87246216 111.46953613 -92.86987305 110.35449219 C-92.88734437 106.08015604 -93.21019448 101.98908361 -93.8125 97.75 C-94.26822049 93.70394104 -94.23694394 93.32659841 -91.6875 89.8125 C-89 88 -89 88 -87 88 C-87 87.34 -87 86.68 -87 86 C-86.34 86 -85.68 86 -85 86 C-84.731875 85.360625 -84.46375 84.72125 -84.1875 84.0625 C-83 82 -83 82 -80 81 C-80 80.34 -80 79.68 -80 79 C-79.34 79 -78.68 79 -78 79 C-77.505 77.515 -77.505 77.515 -77 76 C-76.34 76 -75.68 76 -75 76 C-75 75.34 -75 74.68 -75 74 C-74.34 74 -73.68 74 -73 74 C-72.731875 73.360625 -72.46375 72.72125 -72.1875 72.0625 C-71 70 -71 70 -68 69 C-68 68.34 -68 67.68 -68 67 C-67.34 67 -66.68 67 -66 67 C-65.731875 66.360625 -65.46375 65.72125 -65.1875 65.0625 C-64 63 -64 63 -61 62 C-61 61.34 -61 60.68 -61 60 C-60.34 60 -59.68 60 -59 60 C-58.731875 59.360625 -58.46375 58.72125 -58.1875 58.0625 C-57 56 -57 56 -54 55 C-54 54.34 -54 53.68 -54 53 C-53.34 53 -52.68 53 -52 53 C-51.731875 52.360625 -51.46375 51.72125 -51.1875 51.0625 C-50 49 -50 49 -47 48 C-47 47.34 -47 46.68 -47 46 C-46.34 46 -45.68 46 -45 46 C-44.67 45.01 -44.34 44.02 -44 43 C-43.34 43 -42.68 43 -42 43 C-42 42.34 -42 41.68 -42 41 C-41.34 41 -40.68 41 -40 41 C-40 40.34 -40 39.68 -40 39 C-39.34 39 -38.68 39 -38 39 C-37.67 38.01 -37.34 37.02 -37 36 C-36.34 36 -35.68 36 -35 36 C-35 35.34 -35 34.68 -35 34 C-34.34 34 -33.68 34 -33 34 C-33 33.34 -33 32.68 -33 32 C-32.34 32 -31.68 32 -31 32 C-30.505 30.515 -30.505 30.515 -30 29 C-29.34 29 -28.68 29 -28 29 C-28 28.34 -28 27.68 -28 27 C-25.625 24.375 -25.625 24.375 -23 22 C-22.34 22 -21.68 22 -21 22 C-21 21.34 -21 20.68 -21 20 C-18.625 17.375 -18.625 17.375 -16 15 C-15.34 15 -14.68 15 -14 15 C-14 14.34 -14 13.68 -14 13 C-13.34 13 -12.68 13 -12 13 C-11.5978125 12.0409375 -11.5978125 12.0409375 -11.1875 11.0625 C-10 9 -10 9 -7 8 C-7 7.34 -7 6.68 -7 6 C-6.34 6 -5.68 6 -5 6 C-4.731875 5.38125 -4.46375 4.7625 -4.1875 4.125 C-3 2 -3 2 0 0 Z " fill="#FFFFFF" transform="translate(505,187)"/>
<path d="M0 0 C7.88831824 1.12690261 7.88831824 1.12690261 10.9453125 2.19921875 C11.97398437 2.55983398 11.97398437 2.55983398 13.0234375 2.92773438 C14.06371094 3.30381836 14.06371094 3.30381836 15.125 3.6875 C16.13046875 4.03458008 16.13046875 4.03458008 17.15625 4.38867188 C24.034636 6.83701931 30.28809 9.90219538 37 13 C37.33 39.4 37.66 65.8 38 93 C38.66 93 39.32 93 40 93 C40.268125 92.401875 40.53625 91.80375 40.8125 91.1875 C41.99917406 89.00152146 43.09599113 87.58667406 45 86 C45.66 86 46.32 86 47 86 C47.37125 85.071875 47.37125 85.071875 47.75 84.125 C49.23740369 81.59641373 50.43678009 81.28160996 53 80 C54.09166275 78.06669397 54.09166275 78.06669397 55 76 C56.5 74.25 56.5 74.25 58 73 C58.66 73 59.32 73 60 73 C60.25974609 72.41573242 60.51949219 71.83146484 60.78710938 71.22949219 C62.084656 68.84438836 63.49341122 67.24809363 65.40625 65.328125 C66.06753906 64.66425781 66.72882813 64.00039062 67.41015625 63.31640625 C68.09980469 62.63449219 68.78945313 61.95257813 69.5 61.25 C70.18964844 60.55261719 70.87929688 59.85523438 71.58984375 59.13671875 C72.25113281 58.47800781 72.91242188 57.81929687 73.59375 57.140625 C74.19896484 56.53766602 74.80417969 55.93470703 75.42773438 55.31347656 C77 54 77 54 79 54 C79.226875 53.4225 79.45375 52.845 79.6875 52.25 C81.33038023 49.4336339 83.39533227 47.91922886 86 46 C89.18706942 47.43561686 91.62169105 49.20266329 94.25 51.5 C95.30960938 52.41265625 95.30960938 52.41265625 96.390625 53.34375 C98 55 98 55 98 57 C98.66 57 99.32 57 100 57 C101.625 58.375 101.625 58.375 103 60 C103 60.66 103 61.32 103 62 C103.66 62 104.32 62 105 62 C105 62.66 105 63.32 105 64 C105.66 64 106.32 64 107 64 C108.5078125 65.75 108.5078125 65.75 110.125 68 C110.66382813 68.7425 111.20265625 69.485 111.7578125 70.25 C112.16773438 70.8275 112.57765625 71.405 113 72 C112.67 72.66 112.34 73.32 112 74 C111.34 74 110.68 74 110 74 C110 74.66 110 75.32 110 76 C109.34 76 108.68 76 108 76 C107.505 77.485 107.505 77.485 107 79 C106.34 79 105.68 79 105 79 C105 79.66 105 80.32 105 81 C104.34 81 103.68 81 103 81 C103 81.66 103 82.32 103 83 C102.34 83 101.68 83 101 83 C100.505 84.485 100.505 84.485 100 86 C99.34 86 98.68 86 98 86 C98 86.66 98 87.32 98 88 C97.34 88 96.68 88 96 88 C96 88.66 96 89.32 96 90 C95.34 90 94.68 90 94 90 C93.505 91.485 93.505 91.485 93 93 C92.34 93 91.68 93 91 93 C91 93.66 91 94.32 91 95 C90.34 95 89.68 95 89 95 C88.731875 95.639375 88.46375 96.27875 88.1875 96.9375 C87 99 87 99 84 100 C84 100.66 84 101.32 84 102 C83.34 102 82.68 102 82 102 C81.731875 102.639375 81.46375 103.27875 81.1875 103.9375 C80 106 80 106 77 107 C77 107.66 77 108.32 77 109 C76.34 109 75.68 109 75 109 C74.505 110.485 74.505 110.485 74 112 C73.34 112 72.68 112 72 112 C72 112.66 72 113.32 72 114 C71.34 114 70.68 114 70 114 C70 114.66 70 115.32 70 116 C69.34 116 68.68 116 68 116 C67.505 117.485 67.505 117.485 67 119 C66.34 119 65.68 119 65 119 C65 119.66 65 120.32 65 121 C64.34 121 63.68 121 63 121 C63 121.66 63 122.32 63 123 C62.34 123 61.68 123 61 123 C60.505 124.485 60.505 124.485 60 126 C59.34 126 58.68 126 58 126 C58 126.66 58 127.32 58 128 C55.625 130.625 55.625 130.625 53 133 C52.34 133 51.68 133 51 133 C51 133.66 51 134.32 51 135 C48.625 137.625 48.625 137.625 46 140 C45.34 140 44.68 140 44 140 C44 140.66 44 141.32 44 142 C42.390625 143.55078125 42.390625 143.55078125 40.25 145.3125 C37.07898453 147.99951837 34.57756697 150.73508184 32 154 C30.05788216 155.75370342 28.04965311 157.36959412 26 159 C24.5 157.625 24.5 157.625 23 156 C23 155.34 23 154.68 23 154 C22.34 154 21.68 154 21 154 C19.98133771 152.34467377 18.98189187 150.67739862 18 149 C17.34 148.67 16.68 148.34 16 148 C16 147.34 16 146.68 16 146 C15.34 146 14.68 146 14 146 C12.81786948 144.85164464 11.64134469 143.69671322 10.5 142.5078125 C7.36704255 139.35853757 3.99177781 135.9958889 0 134 C0 89.78 0 45.56 0 0 Z " fill="#FFFFFF" transform="translate(367,78)"/>
<path d="M0 0 C29.7 0 59.4 0 90 0 C90 9.9 90 19.8 90 30 C72.84 30 55.68 30 38 30 C38 37.26 38 44.52 38 52 C50.54 52 63.08 52 76 52 C76 61.24 76 70.48 76 80 C63.46 80 50.92 80 38 80 C38 96.83 38 113.66 38 131 C25.46 131 12.92 131 0 131 C0 87.77 0 44.54 0 0 Z " fill="#FFFFFF" transform="translate(636,145)"/>
<path d="M0 0 C34.98 0 69.96 0 106 0 C106 9.9 106 19.8 106 30 C94.45 30 82.9 30 71 30 C71 63.33 71 96.66 71 131 C58.79 131 46.58 131 34 131 C34 97.67 34 64.34 34 30 C22.78 30 11.56 30 0 30 C0 20.1 0 10.2 0 0 Z " fill="#FFFFFF" transform="translate(876,145)"/>
<path d="M0 0 C12.21 0 24.42 0 37 0 C37 43.23 37 86.46 37 131 C24.79 131 12.58 131 0 131 C0 87.77 0 44.54 0 0 Z " fill="#FFFFFF" transform="translate(779,323)"/>
</svg>
